<?xml version="1.0" standalone="no"?>
<!DOCTYPE svg PUBLIC "-//W3C//DTD SVG 20010904//EN"
 "http://www.w3.org/TR/2001/REC-SVG-20010904/DTD/svg10.dtd">
<svg version="1.0" xmlns="http://www.w3.org/2000/svg"
 width="1159pt" height="460pt" viewBox="0 0 1159.000000 1280.000000"
 preserveAspectRatio="xMidYMid meet">
<metadata>
Created by potrace 1.15, written by Peter Selinger 2001-2017
</metadata>
<g transform="translate(0.000000,1280.000000) scale(0.100000,-0.100000)"
fill="#cecece" stroke="none">
<path d="M10554 12786 c-205 -64 -559 -342 -1083 -851 -83 -81 -146 -135 -148
-127 -16 44 -125 242 -176 317 -76 111 -256 293 -357 360 -160 106 -349 180
-537 211 -131 21 -398 21 -518 0 -346 -62 -622 -211 -890 -480 -407 -408 -718
-1067 -909 -1926 -25 -113 -49 -226 -52 -252 -4 -27 -8 -48 -10 -48 -1 0 -29
26 -61 58 -273 273 -799 492 -1488 621 -957 178 -2030 153 -2952 -69 -757
-182 -1274 -512 -1357 -863 -15 -62 -17 -111 -14 -298 3 -203 6 -230 27 -289
30 -85 76 -160 145 -237 l56 -61 0 -3157 0 -3156 -57 -65 c-75 -83 -129 -172
-153 -255 -18 -59 -20 -96 -20 -342 0 -151 3 -277 8 -279 4 -1 15 -28 26 -58
145 -425 940 -794 2016 -934 339 -44 463 -51 960 -51 509 0 614 6 990 56 1069
141 1865 519 1991 947 7 23 16 42 21 42 4 0 8 123 8 273 0 235 -3 280 -18 332
-29 95 -69 166 -138 248 l-64 77 0 2130 0 2130 63 0 c126 0 220 38 253 103 27
52 13 164 -51 392 -57 205 -118 484 -113 515 4 21 1978 1985 2158 2146 74 66
353 307 620 534 267 228 512 438 545 467 52 47 60 51 66 35 4 -10 14 -130 23
-268 64 -988 43 -2090 -60 -3129 -163 -1654 -509 -3055 -1159 -4695 -254 -641
-488 -1161 -853 -1895 -140 -280 -267 -550 -284 -598 -66 -197 -43 -329 66
-378 51 -23 91 -24 175 -3 138 34 266 112 586 352 452 340 739 501 1105 620
370 120 694 166 1185 165 646 0 1046 -88 1231 -268 133 -130 119 -252 -45
-416 -181 -181 -466 -284 -844 -305 -138 -8 -167 -22 -167 -79 0 -51 27 -65
125 -65 236 1 539 67 719 157 209 104 386 283 431 437 40 133 -8 273 -132 386
-161 148 -423 233 -863 281 -183 21 -779 17 -965 -5 -463 -55 -830 -163 -1192
-351 -201 -104 -349 -201 -627 -408 -354 -265 -448 -324 -579 -362 -92 -27
-117 -5 -102 92 13 86 56 185 255 583 450 901 745 1566 1036 2338 677 1795
988 3283 1110 5307 21 357 30 1385 15 1765 -21 542 -46 845 -71 860 -6 4 36
50 93 103 116 108 579 589 713 742 296 338 459 590 472 727 5 55 3 59 -31 93
-39 39 -77 44 -153 21z m54 -143 c13 -93 -275 -437 -877 -1046 l-265 -268 -39
157 -39 157 69 69 c137 140 572 549 711 671 275 240 430 332 440 260z m-2385
-88 c429 -65 770 -345 961 -792 l34 -81 -45 -43 c-95 -93 -315 -342 -718 -814
-591 -692 -592 -693 -1274 -1380 -339 -341 -762 -767 -941 -947 -299 -303
-325 -326 -334 -305 -5 12 -9 188 -10 402 l0 380 38 60 c68 111 79 163 84 395
3 162 0 224 -13 295 l-17 90 31 170 c63 343 161 715 256 980 341 943 844 1482
1484 1590 106 18 346 18 464 0z m1076 -1141 c12 -50 21 -100 21 -111 0 -11 10
-33 21 -48 l22 -27 -84 -85 c-106 -107 -323 -305 -412 -375 -95 -76 -169 -119
-216 -125 -107 -14 -92 87 37 257 113 148 569 628 583 613 4 -4 16 -49 28 -99z
m-3469 -3753 c0 -33 56 -271 104 -442 26 -90 49 -187 52 -215 l6 -52 -51 -11
c-29 -6 -72 -11 -96 -11 l-45 0 0 368 c0 203 3 372 7 375 12 13 23 7 23 -12z"/>
</g>
</svg>
